<svg xmlns="http://www.w3.org/2000/svg" xmlns:xlink="http://www.w3.org/1999/xlink" width="1200" zoomAndPan="magnify" viewBox="0 0 900 293.25" height="391" preserveAspectRatio="xMidYMid meet" version="1.0"><defs><g/><clipPath id="2525d3aa31"><path d="M 27.023438 40.710938 L 237.984375 40.710938 L 237.984375 251.671875 L 27.023438 251.671875 Z M 27.023438 40.710938 " clip-rule="nonzero"/></clipPath><clipPath id="bd1cb480e3"><path d="M 222 118 L 237.984375 118 L 237.984375 137 L 222 137 Z M 222 118 " clip-rule="nonzero"/></clipPath></defs><g clip-path="url(#2525d3aa31)"><path fill="#93c5e4" d="M 237.707031 146.191406 C 237.707031 204.40625 190.582031 251.53125 132.367188 251.53125 C 74.152344 251.53125 27.023438 204.40625 27.023438 146.191406 C 27.023438 87.976562 74.152344 40.851562 132.367188 40.851562 C 160.363281 40.851562 185.867188 51.800781 204.71875 69.679688 C 206.519531 71.34375 208.183594 73.144531 209.984375 74.945312 C 220.796875 86.730469 228.976562 100.867188 233.550781 116.667969 C 234.105469 118.609375 234.660156 120.550781 235.074219 122.488281 C 236.875 130.113281 237.707031 138.011719 237.707031 146.191406 Z M 237.707031 146.191406 " fill-opacity="1" fill-rule="nonzero"/></g><path fill="#da4944" d="M 209.707031 135.65625 C 209.707031 135.65625 171.730469 164.765625 158.285156 159.082031 C 143.730469 152.984375 154.542969 144.113281 154.542969 144.113281 C 154.542969 144.113281 140.960938 146.605469 135.691406 141.0625 C 130.425781 135.519531 142.898438 128.035156 142.898438 128.035156 C 142.898438 128.035156 131.257812 127.894531 132.367188 120.132812 C 133.476562 112.511719 173.394531 99.757812 173.394531 99.757812 Z M 209.707031 135.65625 " fill-opacity="1" fill-rule="nonzero"/><path fill="#000000" d="M 112.683594 100.3125 L 103.398438 96.570312 C 101.039062 95.601562 98.40625 97.816406 99.238281 100.3125 L 101.179688 107.105469 C 104.230469 107.382812 108.804688 106.6875 112.683594 100.3125 Z M 112.683594 100.3125 " fill-opacity="1" fill-rule="nonzero"/><path fill="#f8cc48" d="M 126.40625 105.996094 L 112.683594 100.3125 C 108.941406 106.550781 104.230469 107.382812 101.179688 106.964844 L 106.585938 125.816406 L 145.257812 163.101562 L 163.136719 146.46875 Z M 126.40625 105.996094 " fill-opacity="1" fill-rule="nonzero"/><path fill="#da4944" d="M 87.734375 222.5625 C 87.734375 222.5625 130.007812 191.101562 130.839844 176.546875 C 131.8125 160.746094 119.058594 166.566406 119.058594 166.566406 C 119.058594 166.566406 127.238281 155.476562 124.742188 148.269531 C 122.109375 141.0625 109.910156 148.964844 109.910156 148.964844 C 109.910156 148.964844 114.902344 138.566406 107.417969 136.074219 C 100.070312 133.578125 76.089844 165.597656 76.089844 165.597656 C 76.089844 165.597656 79.28125 144.25 69.992188 141.339844 C 59.320312 138.152344 58.902344 153.816406 54.882812 189.019531 Z M 87.734375 222.5625 " fill-opacity="1" fill-rule="nonzero"/><path fill="#000000" d="M 96.242188 161.019531 L 109.410156 147.140625 L 111.421875 149.050781 L 98.253906 162.925781 Z M 96.242188 161.019531 " fill-opacity="1" fill-rule="nonzero"/><path fill="#000000" d="M 102.605469 176.003906 L 121.078125 163.480469 L 122.632812 165.773438 L 104.160156 178.296875 Z M 102.605469 176.003906 " fill-opacity="1" fill-rule="nonzero"/><path fill="#da4944" d="M 145.257812 163.101562 C 145.257812 163.101562 160.640625 182.230469 172.699219 170.863281 C 183.789062 160.328125 163.136719 146.605469 163.136719 146.605469 Z M 145.257812 163.101562 " fill-opacity="1" fill-rule="nonzero"/><path fill="#000000" d="M 125.351562 119.597656 L 127.375 117.703125 L 143 134.402344 L 140.976562 136.296875 Z M 125.351562 119.597656 " fill-opacity="1" fill-rule="nonzero"/><path fill="#000000" d="M 115.605469 126.367188 L 117.492188 124.335938 L 152.136719 156.484375 L 150.25 158.515625 Z M 115.605469 126.367188 " fill-opacity="1" fill-rule="nonzero"/><path fill="#000000" d="M 106.167969 126.785156 C 105.890625 126.785156 105.753906 126.785156 105.613281 126.785156 L 106.03125 124.015625 L 105.890625 125.398438 L 106.03125 124.015625 C 106.445312 124.015625 110.328125 124.292969 111.296875 118.46875 L 111.4375 117.359375 L 112.546875 117.222656 C 112.824219 117.222656 118.226562 116.667969 118.78125 110.152344 L 121.554688 110.429688 C 121 116.667969 116.703125 119.164062 113.792969 119.855469 C 112.40625 126.230469 107.695312 126.785156 106.167969 126.785156 Z M 106.167969 126.785156 " fill-opacity="1" fill-rule="nonzero"/><path fill="#000000" d="M 144.273438 161.960938 L 158.101562 149.148438 L 159.984375 151.183594 L 146.160156 163.996094 Z M 144.273438 161.960938 " fill-opacity="1" fill-rule="nonzero"/><path fill="#000000" d="M 78.449219 239.890625 L 76.644531 237.8125 L 91.0625 225.476562 L 46.429688 183.0625 C 43.242188 186.527344 35.0625 195.257812 33.125 196.507812 L 31.738281 194.148438 C 33.261719 193.316406 40.886719 185.140625 45.460938 180.289062 L 46.429688 179.179688 L 95.082031 225.613281 Z M 78.449219 239.890625 " fill-opacity="1" fill-rule="nonzero"/><path fill="#da4944" d="M 173.253906 99.757812 C 173.253906 99.757812 129.039062 88.808594 132.644531 125.398438 C 135.554688 154.371094 149 136.351562 152.046875 123.460938 Z M 173.253906 99.757812 " fill-opacity="1" fill-rule="nonzero"/><path fill="#000000" d="M 174.503906 163.101562 C 173.949219 154.644531 162.445312 147.714844 162.445312 147.578125 L 163.828125 145.222656 C 164.382812 145.5 176.71875 152.984375 177.273438 162.964844 Z M 174.503906 163.101562 " fill-opacity="1" fill-rule="nonzero"/><path fill="#000000" d="M 144.148438 140.507812 L 142.621094 138.152344 L 143.453125 139.261719 L 142.621094 138.152344 C 142.898438 138.011719 149.96875 133.164062 149.832031 121.65625 L 152.601562 121.65625 C 152.742188 134.6875 144.5625 140.230469 144.148438 140.507812 Z M 144.148438 140.507812 " fill-opacity="1" fill-rule="nonzero"/><path fill="#f8cc48" d="M 235.074219 122.488281 C 224.539062 136.351562 213.035156 145.082031 213.035156 145.082031 L 163.136719 92.6875 C 180.601562 84.234375 194.460938 76.472656 204.859375 69.679688 C 206.660156 71.34375 208.324219 73.144531 210.125 74.945312 C 220.9375 86.730469 229.113281 100.867188 233.6875 116.667969 C 234.105469 118.46875 234.660156 120.550781 235.074219 122.488281 Z M 235.074219 122.488281 " fill-opacity="1" fill-rule="nonzero"/><g clip-path="url(#bd1cb480e3)"><path fill="#000000" d="M 224.816406 136.351562 L 222.738281 134.546875 C 222.738281 134.410156 229.113281 127.339844 235.765625 118.46875 L 237.984375 120.132812 C 231.332031 129.003906 224.816406 136.210938 224.816406 136.351562 Z M 224.816406 136.351562 " fill-opacity="1" fill-rule="nonzero"/></g><path fill="#000000" d="M 66.34375 121.464844 L 88.507812 120.730469 L 88.597656 123.5 L 66.4375 124.234375 Z M 66.34375 121.464844 " fill-opacity="1" fill-rule="nonzero"/><path fill="#000000" d="M 125.574219 73.699219 L 128.347656 73.699219 L 128.347656 97.679688 L 125.574219 97.679688 Z M 125.574219 73.699219 " fill-opacity="1" fill-rule="nonzero"/><path fill="#000000" d="M 73.277344 74.71875 L 75.15625 72.679688 L 93.007812 89.097656 L 91.132812 91.136719 Z M 73.277344 74.71875 " fill-opacity="1" fill-rule="nonzero"/><path fill="#000000" d="M 151.496094 212.003906 L 151.71875 186.636719 L 154.488281 186.664062 L 154.265625 212.027344 Z M 151.496094 212.003906 " fill-opacity="1" fill-rule="nonzero"/><path fill="#000000" d="M 175.390625 184.75 L 177.75 183.292969 L 194.371094 210.171875 L 192.011719 211.628906 Z M 175.390625 184.75 " fill-opacity="1" fill-rule="nonzero"/><path fill="#000000" d="M 188.503906 173.082031 L 202.640625 173.082031 L 202.640625 175.851562 L 188.503906 175.851562 Z M 188.503906 173.082031 " fill-opacity="1" fill-rule="nonzero"/><g fill="#8c52ff" fill-opacity="1"><g transform="translate(258.757636, 195.611512)"><g><path d="M 78.421875 -85.4375 L 78.421875 0 L 41.546875 0 L 41.546875 -85.4375 L 3.84375 -85.4375 L 3.84375 -114.796875 L 115.96875 -114.796875 L 115.96875 -85.4375 Z M 78.421875 -85.4375 "/></g></g></g><g fill="#000000" fill-opacity="1"><g transform="translate(351.104963, 195.540816)"><g><path d="M 53.03125 0 L 50.15625 -9.609375 L 26.265625 -9.609375 L 23.390625 0 L 0.984375 0 L 25.875 -68.203125 L 51.34375 -68.203125 L 76.234375 0 Z M 30.828125 -24.875 L 45.59375 -24.875 L 38.453125 -49.171875 L 38.0625 -49.171875 Z M 30.828125 -24.875 "/></g></g></g><g fill="#000000" fill-opacity="1"><g transform="translate(417.220115, 195.597191)"><g><path d="M 72.046875 -47.28125 C 72.046875 -43.113281 70.921875 -39.34375 68.671875 -35.96875 C 66.429688 -32.601562 63.164062 -30.128906 58.875 -28.546875 L 74.03125 0 L 49.453125 0 L 37.359375 -24.875 L 29.234375 -24.875 L 29.234375 0 L 7.328125 0 L 7.328125 -68.1875 L 49.0625 -68.1875 C 53.945312 -68.1875 58.125 -67.242188 61.59375 -65.359375 C 65.0625 -63.472656 67.671875 -60.925781 69.421875 -57.71875 C 71.171875 -54.519531 72.046875 -51.039062 72.046875 -47.28125 Z M 49.75 -46.390625 C 49.75 -48.171875 49.15625 -49.65625 47.96875 -50.84375 C 46.78125 -52.03125 45.328125 -52.625 43.609375 -52.625 L 29.234375 -52.625 L 29.234375 -40.046875 L 43.609375 -40.046875 C 45.328125 -40.046875 46.78125 -40.65625 47.96875 -41.875 C 49.15625 -43.09375 49.75 -44.597656 49.75 -46.390625 Z M 49.75 -46.390625 "/></g></g></g><g fill="#000000" fill-opacity="1"><g transform="translate(487.862959, 195.597191)"><g><path d="M 7.328125 -68.1875 L 66.296875 -68.1875 L 66.296875 -51.828125 L 29.234375 -51.828125 L 29.234375 -42.421875 L 60.953125 -42.421875 L 60.953125 -26.765625 L 29.234375 -26.765625 L 29.234375 -16.359375 L 67 -16.359375 L 67 0 L 7.328125 0 Z M 7.328125 -68.1875 "/></g></g></g><g fill="#8c52ff" fill-opacity="1"><g transform="translate(559.427591, 195.611512)"><g><path d="M 12.34375 -114.796875 L 105.125 -114.796875 L 105.125 -87.265625 L 49.21875 -87.265625 L 49.21875 -67.578125 L 97.28125 -67.578125 L 97.28125 -41.21875 L 49.21875 -41.21875 L 49.21875 0 L 12.34375 0 Z M 12.34375 -114.796875 "/></g></g></g><g fill="#000000" fill-opacity="1"><g transform="translate(653.978736, 195.597191)"><g><path d="M 53.03125 0 L 50.15625 -9.609375 L 26.265625 -9.609375 L 23.390625 0 L 0.984375 0 L 25.875 -68.1875 L 51.34375 -68.1875 L 76.21875 0 Z M 30.828125 -24.875 L 45.59375 -24.875 L 38.453125 -49.15625 L 38.0625 -49.15625 Z M 30.828125 -24.875 "/></g></g></g><g fill="#000000" fill-opacity="1"><g transform="translate(727.875746, 195.597191)"><g><path d="M 35.984375 -69.375 C 44.703125 -69.375 51.867188 -67.601562 57.484375 -64.0625 C 63.097656 -60.53125 65.972656 -55.296875 66.109375 -48.359375 L 66.109375 -47.171875 L 45.59375 -47.171875 L 45.59375 -47.578125 C 45.59375 -49.554688 44.863281 -51.207031 43.40625 -52.53125 C 41.957031 -53.851562 39.742188 -54.515625 36.765625 -54.515625 C 33.859375 -54.515625 31.628906 -54.082031 30.078125 -53.21875 C 28.523438 -52.363281 27.75 -51.304688 27.75 -50.046875 C 27.75 -48.265625 28.804688 -46.941406 30.921875 -46.078125 C 33.035156 -45.222656 36.4375 -44.332031 41.125 -43.40625 C 46.613281 -42.28125 51.125 -41.109375 54.65625 -39.890625 C 58.195312 -38.671875 61.285156 -36.671875 63.921875 -33.890625 C 66.566406 -31.117188 67.921875 -27.351562 67.984375 -22.59375 C 67.984375 -14.53125 65.257812 -8.550781 59.8125 -4.65625 C 54.363281 -0.757812 47.078125 1.1875 37.953125 1.1875 C 27.316406 1.1875 19.039062 -0.59375 13.125 -4.15625 C 7.21875 -7.726562 4.265625 -14.039062 4.265625 -23.09375 L 24.96875 -23.09375 C 24.96875 -19.65625 25.859375 -17.359375 27.640625 -16.203125 C 29.429688 -15.046875 32.210938 -14.46875 35.984375 -14.46875 C 38.753906 -14.46875 41.046875 -14.765625 42.859375 -15.359375 C 44.679688 -15.953125 45.59375 -17.175781 45.59375 -19.03125 C 45.59375 -20.675781 44.582031 -21.910156 42.5625 -22.734375 C 40.550781 -23.566406 37.265625 -24.445312 32.703125 -25.375 C 27.148438 -26.5625 22.554688 -27.796875 18.921875 -29.078125 C 15.296875 -30.367188 12.128906 -32.5 9.421875 -35.46875 C 6.710938 -38.445312 5.359375 -42.484375 5.359375 -47.578125 C 5.359375 -55.035156 8.25 -60.53125 14.03125 -64.0625 C 19.8125 -67.601562 27.128906 -69.375 35.984375 -69.375 Z M 35.984375 -69.375 "/></g></g></g></svg>