<svg xmlns="http://www.w3.org/2000/svg" xmlns:xlink="http://www.w3.org/1999/xlink" width="500" zoomAndPan="magnify" viewBox="0 0 375 374.999991" height="500" preserveAspectRatio="xMidYMid meet" version="1.0"><path fill="#93c5e4" d="M 374.507812 187.5 C 374.507812 290.980469 290.734375 374.753906 187.253906 374.753906 C 83.769531 374.753906 0 290.980469 0 187.5 C 0 84.019531 83.769531 0.246094 187.253906 0.246094 C 237.023438 0.246094 282.359375 19.710938 315.867188 51.496094 C 319.070312 54.453125 322.027344 57.65625 325.230469 60.855469 C 344.449219 81.800781 358.984375 106.933594 367.117188 135.019531 C 368.101562 138.46875 369.085938 141.917969 369.824219 145.367188 C 373.027344 158.917969 374.507812 172.964844 374.507812 187.5 Z M 374.507812 187.5 " fill-opacity="1" fill-rule="nonzero"/><path fill="#da4944" d="M 324.738281 168.773438 C 324.738281 168.773438 257.226562 220.515625 233.328125 210.414062 C 207.457031 199.574219 226.675781 183.804688 226.675781 183.804688 C 226.675781 183.804688 202.53125 188.238281 193.167969 178.382812 C 183.804688 168.527344 205.980469 155.222656 205.980469 155.222656 C 205.980469 155.222656 185.28125 154.976562 187.253906 141.179688 C 189.226562 127.628906 260.183594 104.960938 260.183594 104.960938 Z M 324.738281 168.773438 " fill-opacity="1" fill-rule="nonzero"/><path fill="#000000" d="M 152.265625 105.945312 L 135.757812 99.292969 C 131.570312 97.570312 126.890625 101.511719 128.367188 105.945312 L 131.816406 118.019531 C 137.238281 118.511719 145.367188 117.28125 152.265625 105.945312 Z M 152.265625 105.945312 " fill-opacity="1" fill-rule="nonzero"/><path fill="#f8cc48" d="M 176.660156 116.046875 L 152.265625 105.945312 C 145.613281 117.035156 137.238281 118.511719 131.816406 117.773438 L 141.425781 151.28125 L 210.167969 217.558594 L 241.953125 187.992188 Z M 176.660156 116.046875 " fill-opacity="1" fill-rule="nonzero"/><path fill="#da4944" d="M 107.917969 323.257812 C 107.917969 323.257812 183.066406 267.328125 184.542969 241.457031 C 186.269531 213.371094 163.601562 223.71875 163.601562 223.71875 C 163.601562 223.71875 178.136719 204.007812 173.703125 191.195312 C 169.019531 178.382812 147.339844 192.429688 147.339844 192.429688 C 147.339844 192.429688 156.207031 173.949219 142.902344 169.515625 C 129.84375 165.078125 87.222656 221.992188 87.222656 221.992188 C 87.222656 221.992188 92.886719 184.050781 76.378906 178.875 C 57.40625 173.210938 56.667969 201.050781 49.523438 263.632812 Z M 107.917969 323.257812 " fill-opacity="1" fill-rule="nonzero"/><path fill="#000000" d="M 123.042969 213.855469 L 146.445312 189.191406 L 150.019531 192.582031 L 126.617188 217.246094 Z M 123.042969 213.855469 " fill-opacity="1" fill-rule="nonzero"/><path fill="#000000" d="M 134.351562 240.492188 L 167.1875 218.234375 L 169.949219 222.3125 L 137.117188 244.574219 Z M 134.351562 240.492188 " fill-opacity="1" fill-rule="nonzero"/><path fill="#da4944" d="M 210.167969 217.558594 C 210.167969 217.558594 237.515625 251.558594 258.953125 231.355469 C 278.664062 212.632812 241.953125 188.238281 241.953125 188.238281 Z M 210.167969 217.558594 " fill-opacity="1" fill-rule="nonzero"/><path fill="#000000" d="M 174.785156 140.222656 L 178.382812 136.859375 L 206.15625 166.546875 L 202.558594 169.914062 Z M 174.785156 140.222656 " fill-opacity="1" fill-rule="nonzero"/><path fill="#000000" d="M 157.460938 152.257812 L 160.8125 148.648438 L 222.398438 205.796875 L 219.046875 209.40625 Z M 157.460938 152.257812 " fill-opacity="1" fill-rule="nonzero"/><path fill="#000000" d="M 140.6875 153.007812 C 140.195312 153.007812 139.949219 153.007812 139.699219 153.007812 L 140.441406 148.078125 L 140.195312 150.542969 L 140.441406 148.078125 C 141.179688 148.078125 148.078125 148.570312 149.804688 138.222656 L 150.050781 136.25 L 152.019531 136.003906 C 152.511719 136.003906 162.121094 135.019531 163.109375 123.441406 L 168.035156 123.933594 C 167.050781 135.019531 159.410156 139.453125 154.238281 140.6875 C 151.773438 152.019531 143.398438 153.007812 140.6875 153.007812 Z M 140.6875 153.007812 " fill-opacity="1" fill-rule="nonzero"/><path fill="#000000" d="M 208.421875 215.535156 L 233 192.757812 L 236.351562 196.371094 L 211.769531 219.148438 Z M 208.421875 215.535156 " fill-opacity="1" fill-rule="nonzero"/><path fill="#000000" d="M 91.410156 354.058594 L 88.207031 350.363281 L 113.832031 328.433594 L 34.492188 253.039062 C 28.828125 259.199219 14.289062 274.722656 10.839844 276.9375 L 8.378906 272.75 C 11.085938 271.269531 24.636719 256.734375 32.769531 248.109375 L 34.492188 246.140625 L 120.976562 328.679688 Z M 91.410156 354.058594 " fill-opacity="1" fill-rule="nonzero"/><path fill="#da4944" d="M 259.9375 104.960938 C 259.9375 104.960938 181.339844 85.496094 187.746094 150.542969 C 192.921875 202.035156 216.820312 170.007812 222.242188 147.09375 Z M 259.9375 104.960938 " fill-opacity="1" fill-rule="nonzero"/><path fill="#000000" d="M 262.15625 217.558594 C 261.167969 202.53125 240.71875 190.210938 240.71875 189.964844 L 243.183594 185.773438 C 244.167969 186.269531 266.097656 199.574219 267.082031 217.3125 Z M 262.15625 217.558594 " fill-opacity="1" fill-rule="nonzero"/><path fill="#000000" d="M 208.195312 177.398438 L 205.484375 173.210938 L 206.964844 175.179688 L 205.484375 173.210938 C 205.980469 172.964844 218.542969 164.339844 218.296875 143.890625 L 223.226562 143.890625 C 223.472656 167.050781 208.9375 176.90625 208.195312 177.398438 Z M 208.195312 177.398438 " fill-opacity="1" fill-rule="nonzero"/><path fill="#f8cc48" d="M 369.824219 145.367188 C 351.101562 170.007812 330.652344 185.527344 330.652344 185.527344 L 241.953125 92.394531 C 272.996094 77.367188 297.632812 63.566406 316.113281 51.496094 C 319.316406 54.453125 322.273438 57.65625 325.476562 60.855469 C 344.695312 81.800781 359.230469 106.933594 367.363281 135.019531 C 368.101562 138.222656 369.085938 141.917969 369.824219 145.367188 Z M 369.824219 145.367188 " fill-opacity="1" fill-rule="nonzero"/><path fill="#000000" d="M 351.59375 170.007812 L 347.898438 166.804688 C 347.898438 166.558594 359.230469 153.992188 371.058594 138.222656 L 375 141.179688 C 363.171875 156.949219 351.59375 169.761719 351.59375 170.007812 Z M 351.59375 170.007812 " fill-opacity="1" fill-rule="nonzero"/><path fill="#000000" d="M 69.894531 143.546875 L 109.292969 142.242188 L 109.453125 147.164062 L 70.058594 148.472656 Z M 69.894531 143.546875 " fill-opacity="1" fill-rule="nonzero"/><path fill="#000000" d="M 175.179688 58.640625 L 180.109375 58.640625 L 180.109375 101.265625 L 175.179688 101.265625 Z M 175.179688 58.640625 " fill-opacity="1" fill-rule="nonzero"/><path fill="#000000" d="M 82.21875 60.449219 L 85.554688 56.824219 L 117.292969 86.011719 L 113.957031 89.636719 Z M 82.21875 60.449219 " fill-opacity="1" fill-rule="nonzero"/><path fill="#000000" d="M 221.253906 304.484375 L 221.652344 259.398438 L 226.578125 259.441406 L 226.183594 304.53125 Z M 221.253906 304.484375 " fill-opacity="1" fill-rule="nonzero"/><path fill="#000000" d="M 263.738281 256.042969 L 267.925781 253.449219 L 297.472656 301.230469 L 293.28125 303.820312 Z M 263.738281 256.042969 " fill-opacity="1" fill-rule="nonzero"/><path fill="#000000" d="M 287.039062 235.300781 L 312.171875 235.300781 L 312.171875 240.226562 L 287.039062 240.226562 Z M 287.039062 235.300781 " fill-opacity="1" fill-rule="nonzero"/></svg>